<?xml version="1.0" encoding="UTF-8"?>
<svg width="37px" height="23px" viewBox="0 0 37 23" version="1.1" xmlns="http://www.w3.org/2000/svg" xmlns:xlink="http://www.w3.org/1999/xlink">
    <!-- Generator: Sketch 40.2 (33826) - http://www.bohemiancoding.com/sketch -->
    <title>Behance</title>
    <desc>Created with Sketch.</desc>
    <defs></defs>
    <g id="Page-1" stroke="none" stroke-width="1" fill="none" fill-rule="evenodd">
        <g id="Desktop-HD-Copy" transform="translate(-511.000000, -5286.000000)" fill="#000000">
            <path d="M526.057426,5296.33868 C526.816741,5295.95702 527.391224,5295.53241 527.78287,5295.06982 C528.48224,5294.24157 528.828927,5293.14356 528.828927,5291.78279 C528.828927,5290.46098 528.48224,5289.327 527.791862,5288.37786 C526.6409,5286.83225 524.68866,5286.04096 521.930147,5286 L511,5286 L511,5308.31289 L521.191812,5308.31289 C522.340776,5308.31289 523.403818,5308.21497 524.386932,5308.01316 C525.371045,5307.80934 526.221278,5307.43767 526.941629,5306.89217 C527.583051,5306.41659 528.11657,5305.83112 528.542186,5305.13675 C529.216578,5304.08769 529.552275,5302.90076 529.552275,5301.57896 C529.552275,5300.29611 529.257541,5299.2051 528.672069,5298.3089 C528.080602,5297.41071 527.210387,5296.7553 526.057426,5296.33868 L526.057426,5296.33868 Z M515.508935,5289.87451 L520.432497,5289.87451 C521.514521,5289.87451 522.405718,5289.9914 523.107086,5290.22319 C523.916356,5290.55789 524.320991,5291.24427 524.320991,5292.28633 C524.320991,5293.22049 524.013269,5293.8739 523.40182,5294.24357 C522.786375,5294.61324 521.988094,5294.79807 521.008977,5294.79807 L515.508935,5294.79807 L515.508935,5289.87451 L515.508935,5289.87451 Z M523.291919,5304.04773 C522.74741,5304.3085 521.981101,5304.44038 520.999985,5304.44038 L515.508935,5304.44038 L515.508935,5298.48974 L521.077915,5298.48974 C522.046042,5298.49773 522.801361,5298.62562 523.339876,5298.8674 C524.301009,5299.30301 524.778579,5300.09929 524.778579,5301.26224 C524.778579,5302.634 524.284025,5303.55917 523.291919,5304.04773 Z M534.386917,5287.04006 L544.07918,5287.04006 L544.07918,5289.81656 L534.386917,5289.81656 L534.386917,5287.04006 Z M546.113346,5294.58926 C545.356028,5293.47726 544.393896,5292.66199 543.22495,5292.14846 C542.059001,5291.63192 540.748182,5291.37316 539.291496,5291.37316 C536.840705,5291.37316 534.850499,5292.13947 533.311886,5293.66209 C531.77727,5295.18872 531.008962,5297.38174 531.008962,5300.24116 C531.008962,5303.28941 531.857198,5305.49343 533.563659,5306.84521 C535.261129,5308.19999 537.225358,5308.87538 539.45335,5308.87538 C542.149919,5308.87538 544.247028,5308.0731 545.745677,5306.46955 C546.704813,5305.45946 547.247324,5304.46336 547.365217,5303.48724 L542.900242,5303.48724 C542.642475,5303.9708 542.340747,5304.34846 541.999055,5304.62321 C541.376616,5305.12576 540.565347,5305.37853 539.573242,5305.37853 C538.631091,5305.37853 537.827815,5305.17072 537.161416,5304.75709 C536.059409,5304.09169 535.482929,5302.93074 535.409995,5301.27723 L547.596009,5301.27723 C547.614992,5299.85251 547.568034,5298.7575 547.449142,5298.00118 C547.247324,5296.70835 546.803723,5295.57037 546.113346,5294.58926 Z M535.516898,5298.42979 C535.676754,5297.35576 536.066403,5296.50453 536.683846,5295.8761 C537.30129,5295.24766 538.174503,5294.93395 539.293494,5294.93395 C540.326562,5294.93395 541.189784,5295.22868 541.891152,5295.82115 C542.584527,5296.41761 542.976174,5297.28383 543.055103,5298.42979 L535.516898,5298.42979 L535.516898,5298.42979 Z" id="Behance"></path>
        </g>
    </g>
</svg>